<?xml version="1.0" encoding="UTF-8"?>
<svg xmlns="http://www.w3.org/2000/svg" onmouseup="{ if(window.parent.document.onmouseup) window.parent.document.onmouseup(arguments[0]);}" viewBox="0 0 360.66 364.88" data-name="Слой 1" id="Слой_1" xmlns:xlink="http://www.w3.org/1999/xlink"><defs><style>.cls-1{fill:none;}.cls-2{clip-path:url(#clip-path);}.cls-3{fill:#005f7f;}</style><clipPath transform="translate(-240 -115.2)" id="clip-path"><rect data-cppathid="10000" height="365.76" width="360.96" y="115.28" x="240" class="cls-1"/></clipPath></defs><title/><g class="cls-2"><path data-cppathid="10001" transform="translate(-240 -115.2)" d="M459.31,298.66A20.57,20.57,0,0,0,471.09,328a13.3,13.3,0,0,1,8.57,8.56,20.67,20.67,0,0,0,5.58,8.76,20.39,20.39,0,0,0,13.94,5.39,21.15,21.15,0,0,0,15-6.18L572.64,286c7.92-7.92,8.27-20.89.79-28.93a20.61,20.61,0,0,0-8.76-5.58,13.36,13.36,0,0,1-8.57-8.57,20.64,20.64,0,0,0-5.58-8.75,20.87,20.87,0,0,0-23.71-3l-64-64a20.9,20.9,0,0,0-3-23.71,20.67,20.67,0,0,0-8.76-5.58,13.36,13.36,0,0,1-8.57-8.57,20.71,20.71,0,0,0-5.58-8.76c-8-7.48-21-7.13-28.93.78l-58.48,58.48c-7.91,7.91-8.26,20.89-.78,28.93a20.71,20.71,0,0,0,8.76,5.58,13.37,13.37,0,0,1,8.57,8.56,20.61,20.61,0,0,0,5.58,8.76,20.35,20.35,0,0,0,13.93,5.4,21.41,21.41,0,0,0,9.78-2.37l18,18L246.43,419.62a22,22,0,0,0,31.12,31.11L444.46,283.81Zm106.51-34.48a10.54,10.54,0,0,1-.53,14.49l-58.47,58.47a10.54,10.54,0,0,1-14.49.53,10.23,10.23,0,0,1-2.78-4.35,23.23,23.23,0,0,0-2.53-5.38l69.07-69.07a24.07,24.07,0,0,0,5.38,2.53,10.23,10.23,0,0,1,4.35,2.78ZM543.43,241.8a10.14,10.14,0,0,1,2.78,4.34,23.23,23.23,0,0,0,2.53,5.38l-69.07,69.07a23.23,23.23,0,0,0-5.38-2.53,10.14,10.14,0,0,1-4.34-2.78,10.53,10.53,0,0,1,.51-14.48L529,242.32a10.78,10.78,0,0,1,7.63-3.16,10,10,0,0,1,6.85,2.64ZM356.35,201.69a10.52,10.52,0,0,1,.53-14.48l58.47-58.48a10.83,10.83,0,0,1,7.64-3.17,10,10,0,0,1,6.85,2.64,10.23,10.23,0,0,1,2.78,4.35,23,23,0,0,0,2.53,5.37L366.07,207a23,23,0,0,0-5.37-2.53,10.32,10.32,0,0,1-4.35-2.78Zm22.39,22.38a10,10,0,0,1-2.78-4.34,23.87,23.87,0,0,0-2.53-5.38l69.07-69.07a23.67,23.67,0,0,0,5.38,2.53,10,10,0,0,1,4.34,2.78,10.53,10.53,0,0,1-.52,14.48l-58.48,58.48a10.53,10.53,0,0,1-14.48.52Zm77.47-48.8,62.54,62.54-26.4,26.4L466,290.6l-62.54-62.54Zm-186,268.1a11.6,11.6,0,0,1-16.4-16.4L420.71,260.05l16.4,16.41Zm0,0" class="cls-3"/></g><path data-cppathid="10002" transform="translate(-240 -115.2)" d="M600.65,452.72a5.16,5.16,0,0,0-1.06-3.16l-21.16-27.65V409.28a5.19,5.19,0,0,0-5.2-5.2H427.64a5.2,5.2,0,0,0-5.21,5.2v12.63l-21.15,27.65a5.17,5.17,0,0,0-1.07,3.16v22.16a5.2,5.2,0,0,0,5.2,5.2H595.46a5.2,5.2,0,0,0,5.2-5.2ZM432.84,414.47H568v4H432.84Zm-2.64,14.41H570.66l14.27,18.64h-169Zm-19.6,40.79V457.92H590.26v11.75Zm0,0" class="cls-3"/><path data-cppathid="10003" transform="translate(-240 -115.2)" d="M496.3,240.49a5.2,5.2,0,1,0,7.35-7.35l-42.77-42.77a5.2,5.2,0,0,0-7.36,7.35Zm0,0" class="cls-3"/></svg>